<svg xmlns="http://www.w3.org/2000/svg" viewBox="0 0 861 534"><defs><style>.cls-1{fill:none;stroke:#231f20;stroke-miterlimit:10;stroke-width:3px;fill-rule:evenodd;}</style></defs><g id="Layer_2" data-name="Layer 2"><g id="Layer_1-2" data-name="Layer 1"><path class="cls-1" d="M1.5,532.5V1.5h858v531Zm531.14-2.27H655.21V407.69H532.64ZM623.44,385v2.27h2.27V385Zm2.27-2.27v-4.54h-4.54v4.54Zm-15.89,6.81v15.88h15.89V389.54Zm9.08-2.27v-9.08h-9.08v9.08Zm36.31-11.35V330.54H609.82v45.38ZM628,378.19v27.23h27.23V378.19Zm-95.34,27.23h74.91V330.54H532.64ZM530.37,3.77H3.77V530.23h526.6Zm326.86,0H532.64v324.5H857.23Zm0,326.77H657.48V530.23H857.23Z"/></g></g></svg>