<svg xmlns="http://www.w3.org/2000/svg" viewBox="0 0 869 533"><defs><style>.cls-1{fill:none;stroke:#231f20;stroke-miterlimit:10;stroke-width:3px;fill-rule:evenodd;}</style></defs><g id="Layer_2" data-name="Layer 2"><g id="Layer_1-2" data-name="Layer 1"><path class="cls-1" d="M671.38,531.5H1.5V1.5h866v530Zm-7.78-2.28a203.24,203.24,0,0,0,125.72-44.09L663.6,408.32Zm0-124.57,128.31,78.4c44.5-36.54,72.94-91.55,73.29-153.13H663.6Zm79.3-201.57h96.81a324.05,324.05,0,0,0-47.65-78.64ZM790,121.89a329.19,329.19,0,0,0-44.2-43.74L541.29,203.08h197.9Zm-48.47,83.46L665,327.65H865.19a320.65,320.65,0,0,0-24.55-122.3ZM631.38,382c0-.13,0-.26-.09-.39L631,382Zm-1.12,2.27.83.51a3.22,3.22,0,0,0,.21-.51Zm-1,4.53V389a4.86,4.86,0,0,1-1.09-.14h-12.6a17.06,17.06,0,0,0,16,15.8v-15.8Zm.13-10.06a5.8,5.8,0,0,0-2.43-1.14V382h.4Zm-4.84,5.69-6.2-3.78a10.16,10.16,0,0,0-2.73,5.88h9v-1.21A5.16,5.16,0,0,1,624.53,384.44Zm.12-3.59v-3.3a10.58,10.58,0,0,0-3.62,1.09Zm-9.16,15.88v7.93h8A19.45,19.45,0,0,1,615.49,396.73Zm.86-17.28-.86-.53v1.69A12.43,12.43,0,0,1,616.35,379.45Zm15.24-4.23L649.86,346a47.07,47.07,0,0,0-34.37-16v45.27Zm17.57,24.27-15.34-9.37v14.5A28.74,28.74,0,0,0,649.16,399.49Zm-4.84,5.17h13.3l-6.35-3.88A30.88,30.88,0,0,1,644.32,404.66Zm7.46-7.23a28.1,28.1,0,0,0,9.47-19.95H633.88l-.06.1v8.87Zm9.48-22.21a45.82,45.82,0,0,0-9.3-26.67l-16.67,26.67ZM651.12,344l8.78-14.05H629.22A49.31,49.31,0,0,1,651.12,344Zm2.13,2.53a48.62,48.62,0,0,1,8.06,15.27V333.6Zm.56,52.17,7.5,4.58V387.82A30.73,30.73,0,0,1,653.81,398.67Zm-116.2,8.26c.61,67.27,55.65,121.68,123.7,122.29V406.93Zm29.73-61.1,45.86,28V329.94A76.94,76.94,0,0,0,567.34,345.83Zm28.11-15.91H541.29l20.42,12.47,3.56,2.18A79.07,79.07,0,0,1,595.45,329.92Zm-30.71,18a75.39,75.39,0,0,0-27.11,56.75H613.2V377.52ZM537.6,529.23H638.35c-50.89-9.65-91-49.29-100.75-99.61Zm0-197v54.93a77.94,77.94,0,0,1,25.1-40.44l-25.1-15.35Zm0-4.53H661.32l76.46-122.3H537.6Zm-203.9-1.39,97.8-59.76-97.8-59.76Zm3.71,1.39H531.59L434.5,268.33Zm194.18-122.3H337.41l97.09,59.32ZM239.2,149l-41.26-25.21a533.11,533.11,0,0,0-78.8,79.29h86.25Zm-30.1,54.08H327.71l-85.83-52.44Zm-91.78,2.27A524.71,524.71,0,0,0,44.7,327.65h82.82L204,205.35ZM7.5,525.57,327.71,329.92H129.81ZM126.1,329.92H43.75A519.53,519.53,0,0,0,3.86,525.46ZM3.79,481.18A520.7,520.7,0,0,1,41.26,329.92H3.79Zm0-153.53H42.22a526.73,526.73,0,0,1,72.2-122.3H3.79Zm0-124.57H116.22a535,535,0,0,1,79.66-80.55L3.79,5.16ZM331.4,3.76H7.5l191,116.68a536.13,536.13,0,0,1,133-78.69Zm0,197.06V44.21A533.45,533.45,0,0,0,200.52,121.7l130.88,80Zm0,4.53H207.68l-76.46,122.3H331.4Zm0,126L7.5,529.23H331.4ZM333.7,3.76V40.81a537.06,537.06,0,0,1,153-37.05Zm201.6,0a536.27,536.27,0,0,0-201.6,39.5V200.82h0v2.26H535.3Zm0,203L437.5,266.5l97.8,59.76Zm0,199.05h0V332.18h0v-2.26H333.7V529.23H535.3Zm2.3-204.11L743.17,76.07A329.69,329.69,0,0,0,537.6,3.78ZM575.39,3.76A331.58,331.58,0,0,1,745.23,74.81l116.27-71ZM747.8,76.9a331.31,331.31,0,0,1,43.42,43L861.5,7.43ZM865.21,7.43l-71.88,115a326.41,326.41,0,0,1,48.85,80.66h23Zm0,197.92H843.12a322.08,322.08,0,0,1,22.09,84.94Zm0,155.12a202.09,202.09,0,0,1-71.07,123.94l71.07,43.43ZM861.5,529.23l-69.93-42.72a205.3,205.3,0,0,1-97.07,42.72Z"/></g></g></svg>