<svg xmlns="http://www.w3.org/2000/svg" viewBox="0 0 693 431.02"><defs><style>.cls-1{fill:none;stroke:#000;stroke-linecap:round;stroke-linejoin:round;stroke-width:6px;}</style></defs><g id="Layer_2" data-name="Layer 2"><g id="Golden_Ratio" data-name="Golden Ratio"><rect class="cls-1" x="3" y="3" width="424.68" height="424.68"/><rect class="cls-1" x="427.68" y="3" width="262.32" height="262.32"/><rect class="cls-1" x="527.64" y="265.31" width="162.36" height="162.36"/><rect class="cls-1" x="427.67" y="327.74" width="99.94" height="99.94"/><rect class="cls-1" x="427.67" y="265.33" width="62.35" height="62.41"/><rect class="cls-1" x="490.02" y="265.33" width="37.62" height="37.62"/><rect class="cls-1" x="502.77" y="302.94" width="24.87" height="24.81"/><rect class="cls-1" x="490.02" y="315" width="12.74" height="12.74"/><path class="cls-1" d="M3.5,428C3.5,193.11,193.59,3,428.5,3h-1c144.82,0,262,117.19,262,262a162.9,162.9,0,0,1-163,163h1a99.94,99.94,0,0,1-100-100,63,63,0,0,1,63-63h-1a38,38,0,0,1,38,38,25,25,0,0,1-25,25c-6.63,0-12-5.81-12-13"/></g></g></svg>